# xmcd
#
# Track frame offsets:
#	150
#	11999
#	25537
#	40140
#	51726
#	67652
#	83762
#	100493
#	115114
#	127513
#	152241
#	197541
#	217058
#
# Disc length: 3075 seconds
#
# Revision: 0
# Processed by: cddbd v1.5.2PL0 Copyright (c) Steve Scherf et al.
# Submitted via: dBpowerAMP V4.0
#
DISCID=a70c010d
DTITLE=hank 3 - stright to hell
DYEAR=1900
DGENRE=Country
TTITLE0=hank
TTITLE1=hank
TTITLE2=hank
TTITLE3=hank
TTITLE4=hank
TTITLE5=hank
TTITLE6=hank
TTITLE7=hank
TTITLE8=hank
TTITLE9=hank
TTITLE10=hank
TTITLE11=hank
TTITLE12=hank
EXTD=hank 3
EXTT0=
EXTT1=
EXTT2=
EXTT3=
EXTT4=
EXTT5=
EXTT6=
EXTT7=
EXTT8=
EXTT9=
EXTT10=
EXTT11=
EXTT12=
PLAYORDER=
